<?xml version="1.0" encoding="utf-8"?>
<svg version="1.2" baseProfile="tiny"
	 xmlns="http://www.w3.org/2000/svg" xmlns:xlink="http://www.w3.org/1999/xlink" x="0px" y="0px" width="128px" height="128px"
	 viewBox="0 0 128 128" xml:space="preserve">
	<path fill-rule="evenodd" fill="#31E2C2" d="M82.47,61.326c-1.882-1.177-7.391-7.596-7.2-16.923
		c0.05-2.433-0.355-5.349,0.501-7.178c1.044-2.232,4.118-2.982,4.458-6.254c0.517-4.971-1.996-5.319-4.508-5.373
		c-0.106-0.003-9.383,0-11.27,0c-1.854,0-11.604-0.01-11.721,0c-1.815,0.149-4.886,0.86-4.508,5.821
		c0.256,3.356,3.608,3.515,4.508,5.821c0.904,2.314,0.432,4.596,0.451,7.164c0.073,10.036-5.709,15.706-7.672,16.936
		c-9.746,6.105-16.22,16.893-16.22,29.183C29.288,109.564,44.829,125,64,125s34.712-15.436,34.712-34.478
		C98.712,78.223,92.228,67.429,82.47,61.326z M67.097,42.004c1.457,0,2.638,1.186,2.638,2.649c0,1.463-1.181,2.649-2.638,2.649
		c-1.457,0-2.638-1.186-2.638-2.649C64.459,43.19,65.64,42.004,67.097,42.004z M60.942,33.174c0.971,0,1.759,0.791,1.759,1.766
		c0,0.975-0.787,1.766-1.759,1.766s-1.759-0.791-1.759-1.766C59.184,33.964,59.971,33.174,60.942,33.174z M59.826,52.86
		c2.548,0,4.614,2.068,4.614,4.619c0,2.551-2.066,4.619-4.614,4.619c-2.548,0-4.614-2.068-4.614-4.619
		C55.212,54.928,57.278,52.86,59.826,52.86z M64.22,120.601c-16.623,0-30.098-13.49-30.098-30.131
		c0-11.268,4.567-18.801,11.864-23.974c3.666-2.599,9.872-1.857,15.379,1.32c3.57,2.059,8.395,7.588,21.055,4.762
		c1.543-0.345,2.822-0.034,4.913,0.03c4.035,1.826,6.607,7.753,6.987,17.862C94.942,107.099,80.843,120.601,64.22,120.601z"/>
	<path fill-rule="evenodd" fill="#31E2C2" d="M69.335,18.418c1.064,0,1.927,0.863,1.927,1.927c0,1.064-0.863,1.927-1.927,1.927
		c-1.064,0-1.927-0.863-1.927-1.927C67.408,19.28,68.271,18.418,69.335,18.418z"/>
	<path fill-rule="evenodd" fill="#31E2C2" d="M57.13,13.921c1.419,0,2.57,1.15,2.57,2.57c0,1.419-1.15,2.57-2.57,2.57
		c-1.419,0-2.57-1.15-2.57-2.57C54.56,15.071,55.711,13.921,57.13,13.921z"/>
	<path fill-rule="evenodd" fill="#31E2C2" d="M67.087,3c1.951,0,3.533,1.582,3.533,3.533s-1.582,3.533-3.533,3.533
		c-1.951,0-3.533-1.582-3.533-3.533S65.136,3,67.087,3z"/>
	<path fill-rule="evenodd" fill="#318F7E" d="M64.123,67.941c9.869-1.52,18.214,0.924,23.696,4.918
		c-10.675,0.654-16.307,2.447-25.743-4.599C62.655,68.63,63.437,68.047,64.123,67.941z"/>
</svg>
